<svg version="1" xmlns="http://www.w3.org/2000/svg" width="1420" height="1420" viewBox="0 0 1065.000000 1065.000000"><path d="M514.5 180.6c-1.1.1-6.7.8-12.5 1.4-84.4 9.2-162.3 57.6-210.4 130.8-4.6 7-9.7 15.4-11.5 18.7l-3.2 6.1-11.4 1.7c-49.5 7.6-95.8 31.6-131 67.8-12.8 13.2-19.9 21.8-28.2 34.4-25.7 38.8-38.6 82-38.6 130 0 52 17.4 102.9 49.3 143.7 9.2 11.9 31.9 34.2 43 42.4 26.5 19.7 55 33.2 86 40.9 27.6 6.9 10.8 6.5 309.9 6.5 287.7 0 279 .1 299.1-4.6 36.1-8.4 66.2-25.4 93.5-52.8 23.6-23.7 38.2-46.9 47.8-76.1 6.4-19.6 8.7-33 9.4-55.5 1-31.3-4.3-59-16.3-84.8-18.9-40.8-47.9-72-85.5-92.1-21.1-11.3-38.6-17-65.3-21.4l-13.9-2.3-3.2-13.1c-14.1-57-46.4-110.1-90.5-148.8-22-19.3-38.5-30.3-64.5-43.3-40.8-20.3-84.7-30.4-131-30.1-10.5.1-19.9.3-21 .5zm55 79.5c54.2 8.8 101.5 36.1 135 77.9 18.4 22.9 31 47.1 39.1 75.2 1.9 6.8 6.2 25.6 9.4 41.8 3.3 16.2 6.2 30.5 6.5 31.7.6 2.4 2.3 2.7 27.5 4.3 46.4 2.9 58.5 5.4 79 16.1 31.2 16.2 53.9 47.2 60.6 82.6 1.9 10.3 2.1 29.9.5 39.3-7.8 43.5-38 78.6-79.8 92.6-18.6 6.3 3.4 5.8-281.3 6.1-176.3.3-264.2.1-274-.7-23.8-1.7-38.8-5.8-60.5-16.5-61.1-30.1-95.5-98.1-83.9-166 8.4-49.6 39-91.3 83.4-113.4 22.4-11.2 35.1-14.3 79.5-18.9l16-1.7 12-23c17.7-33.9 28-48.8 45.8-66.7 42.1-42.2 101.5-65.5 160.7-63.1 6.9.2 17.9 1.4 24.5 2.4z"/></svg>